<?xml version="1.0" encoding="UTF-8"?>
<svg version="1.1" xmlns="http://www.w3.org/2000/svg" width="1024" height="1024">
<path d="M0 0 C337.92 0 675.84 0 1024 0 C1024 337.92 1024 675.84 1024 1024 C686.08 1024 348.16 1024 0 1024 C0 686.08 0 348.16 0 0 Z " fill="#FCFCFC" transform="translate(0,0)"/>
<path d="M0 0 C6.93 0 13.86 0 21 0 C21.33 46.53 21.66 93.06 22 141 C34.54 143.31 47.08 145.62 60 148 C67.74843866 149.86114458 75.38234644 151.72033274 83 154 C83.74378906 154.21946289 84.48757813 154.43892578 85.25390625 154.66503906 C121.72334247 165.60913195 158.39545225 182.77352799 188 207 C188.33 207.66 188.66 208.32 189 209 C186.16391037 207.62659291 183.47788377 206.1155754 180.796875 204.4609375 C170.41559365 198.10634126 160.01874841 192.17011749 149 187 C148.26410645 186.64873047 147.52821289 186.29746094 146.77001953 185.93554688 C133.76823762 179.75227127 120.46216604 174.7249554 106.86474609 170.01171875 C105.03166941 169.36434618 103.20548982 168.69687661 101.38916016 168.00390625 C93.25540152 164.90475051 84.93216841 162.72784793 76.5 160.625 C75.73151733 160.43157013 74.96303467 160.23814026 74.17126465 160.03884888 C56.94002024 155.72793336 39.54056836 152.73401279 22 150 C22 154.95 22 159.9 22 165 C23.25425781 165.07476563 24.50851562 165.14953125 25.80078125 165.2265625 C81.22647367 169.04040033 146.38289597 184.44068541 193.91821289 214.20092773 C197.67271664 215.64205483 200.94735442 214.42993536 204.54760742 212.95947266 C205.39170166 212.5319873 206.2357959 212.10450195 207.10546875 211.6640625 C208.07524658 211.18219482 209.04502441 210.70032715 210.04418945 210.20385742 C211.60012817 209.422323 211.60012817 209.422323 213.1875 208.625 C260.80955601 185.25839768 320.11837398 164.13094152 374 165 C374 160.05 374 155.1 374 150 C349.62296488 153.2306914 325.18731819 157.43963765 301.9453125 165.69140625 C298.46316049 166.9009908 294.92490911 167.85536519 291.37109375 168.83203125 C284.35288405 170.82005983 277.66845838 173.32703299 270.9375 176.125 C269.77065674 176.60727051 268.60381348 177.08954102 267.40161133 177.58642578 C235.84503149 190.62796629 235.84503149 190.62796629 208 210 C207.34 209.67 206.68 209.34 206 209 C244.5063501 175.41296335 295.02531349 156.69461682 344.3125 146.0625 C345.33825638 145.83781036 345.33825638 145.83781036 346.38473511 145.60858154 C348.37530763 145.17652069 350.36844848 144.75955504 352.36328125 144.34765625 C353.50063721 144.11054932 354.63799316 143.87344238 355.80981445 143.62915039 C361.82999635 142.72522865 367.92780563 142.43372817 374 142 C374 95.14 374 48.28 374 0 C381.26 0 388.52 0 396 0 C396 61.38 396 122.76 396 186 C386.1 186.66 376.2 187.32 366 188 C352.28964173 189.48793632 352.28964173 189.48793632 338.75146484 191.96362305 C334.23176804 192.98351868 329.7038224 193.69624014 325.12109375 194.36328125 C315.3224454 195.85642529 305.70813634 197.92230842 296.0625 200.1875 C295.22869812 200.38120178 294.39489624 200.57490356 293.53582764 200.7744751 C279.13761647 204.12543739 264.8651655 207.83039711 250.72729492 212.1640625 C248.94451875 212.71049752 247.15561879 213.23743584 245.3605957 213.7421875 C240.75367614 215.06877124 240.75367614 215.06877124 237.08984375 218.015625 C236.70957031 218.75296875 236.32929687 219.4903125 235.9375 220.25 C230.67629335 229.10492704 223.46872667 233.35713254 214 237 C213.10796875 237.36609375 212.2159375 237.7321875 211.296875 238.109375 C200.67802183 240.97797514 187.31355719 240.46204113 177.50390625 235.48046875 C176.26447266 234.74763672 176.26447266 234.74763672 175 234 C173.77603516 233.31357422 173.77603516 233.31357422 172.52734375 232.61328125 C166.81990701 229.13546087 160.66508065 224.27265979 158.171875 217.875 C156.39375826 215.03001321 154.39378906 214.92371969 151.1875 214.125 C149.92679688 213.79628906 148.66609375 213.46757813 147.3671875 213.12890625 C146.66948242 212.95117676 145.97177734 212.77344727 145.25292969 212.59033203 C141.97627478 211.73175471 138.72800674 210.78106272 135.47558594 209.83544922 C130.99032271 208.53362089 126.49584768 207.26471977 122 206 C121.2255957 205.7819873 120.45119141 205.56397461 119.65332031 205.33935547 C80.42078463 194.39770411 40.52229322 189.15613264 0 185 C0 123.95 0 62.9 0 0 Z " fill="#B88A40" transform="translate(314,464)"/>
<path d="M0 0 C6.87835854 4.09922377 12.2714438 10.19947972 14.4375 18 C14.88932628 22.56147203 14.86784087 27.10608994 14.85742188 31.68701172 C14.86476995 33.07244549 14.87335833 34.45787314 14.88308716 35.84329224 C14.90523471 39.59135097 14.90823725 43.33918941 14.90633965 47.08730459 C14.90621963 50.22331143 14.91479654 53.35927214 14.92311716 56.49526608 C14.94232702 63.89775451 14.94524394 71.30013019 14.93847656 78.70263672 C14.93183783 86.32301733 14.95469856 93.94291365 14.99179029 101.56319606 C15.02254263 108.12056437 15.03384134 114.67777733 15.02995348 121.23521626 C15.02789162 125.14514782 15.03327729 129.05470242 15.05784607 132.96456528 C15.08020273 136.64366332 15.07816269 140.32197708 15.05791855 144.00107956 C15.05291439 145.98290513 15.0724627 147.96474593 15.09292603 149.94647217 C15.01326772 158.45373586 13.64878011 164.63272462 7.63350677 170.87081718 C2.72122417 175.40852827 -1.61136025 177.40573962 -8.42944336 177.34375 C-12.29439885 176.72089807 -14.760185 174.33989625 -17.625 171.8125 C-18.78126989 170.83831986 -19.93882114 169.86565853 -21.09765625 168.89453125 C-21.66105713 168.41153564 -22.22445801 167.92854004 -22.80493164 167.4309082 C-24.61908168 165.95393454 -26.49928814 164.65227142 -28.4375 163.34375 C-31.5625 161 -31.5625 161 -32.5 157.6875 C-32.520625 156.800625 -32.54125 155.91375 -32.5625 155 C-33.84125 154.95875 -35.12 154.9175 -36.4375 154.875 C-43.82079291 154.03783923 -49.95812473 150.0413725 -55 144.6875 C-58.22574029 140.59364264 -60.5625 135.2759073 -60.5625 130 C-61.5525 129.79375 -62.5425 129.5875 -63.5625 129.375 C-71.66120194 126.98629195 -76.24039148 121.70110535 -80.3359375 114.5625 C-84.1921238 106.50626365 -85.16677321 97.72846612 -82.734375 89.04296875 C-81.42395385 85.78158477 -79.90172117 82.66474707 -78.3046875 79.53515625 C-77.34701107 76.26393518 -78.15915874 75.03899239 -79.5625 72 C-80.99602935 63.27476847 -78.57526532 56.1581882 -73.5625 49 C-66.50337838 42 -66.50337838 42 -62.5625 42 C-62.62050781 41.38253906 -62.67851562 40.76507813 -62.73828125 40.12890625 C-63.10981532 33.15468102 -61.79332796 28.57700049 -57.5625 23 C-52.51011942 17.38351867 -46.63455737 14.21814593 -39.0625 13.8125 C-37.825 13.9053125 -37.825 13.9053125 -36.5625 14 C-36.418125 13.175 -36.27375 12.35 -36.125 11.5 C-33.60771541 5.86128252 -28.8384705 2.18162691 -23.75 -1.20703125 C-16.73554629 -3.74977072 -6.72179367 -3.07607507 0 0 Z " fill="#BA8C41" transform="translate(492.5625,400)"/>
<path d="M0 0 C5.55688512 3.0141892 8.23114562 6.72018993 11.4140625 12.0546875 C13.40139329 14.62034206 15.54336423 15.03857087 18.6796875 15.53125 C24.96475099 16.75272877 30.44770205 19.86880652 34.390625 24.8984375 C38.37530559 30.92048302 39.13485845 35.87816733 38.890625 42.9609375 C39.591875 43.1878125 40.293125 43.4146875 41.015625 43.6484375 C48.34277471 46.99344063 51.3981748 51.65932922 54.7578125 58.8359375 C57.0248435 65.08981612 56.40880574 70.32308233 54.578125 76.5859375 C53.86001983 79.35998762 53.70722664 80.52745047 54.8359375 83.1953125 C56.16189894 85.33092958 56.16189894 85.33092958 57.62890625 87.234375 C61.55611676 92.60845254 60.7243178 101.59043708 59.890625 107.9609375 C57.5383626 115.43777154 53.33912226 122.35486803 46.890625 126.9609375 C45.17366618 127.73847836 43.4436315 128.48764331 41.703125 129.2109375 C38.55184743 130.64636107 37.19988781 131.37177808 35.57421875 134.46875 C34.95128301 136.38186645 34.36003905 138.30559033 33.80078125 140.23828125 C31.95210821 145.76843193 28.18448436 149.37619557 23.265625 152.3359375 C18.12963752 154.80882036 14.62330441 155.07118133 8.890625 154.9609375 C8.9834375 156.4459375 8.9834375 156.4459375 9.078125 157.9609375 C8.65893422 160.93719205 7.98889769 161.87171157 5.7265625 163.92578125 C3.81914578 165.28246497 1.88620277 166.60373797 -0.06640625 167.89453125 C-3.01901649 169.89957723 -5.57204526 172.09117147 -8.234375 174.4609375 C-12.15189452 177.60363117 -14.8873132 179.06467134 -19.94921875 178.546875 C-26.86174515 176.67186784 -32.19448168 171.84574529 -36.109375 165.9609375 C-37.88903761 162.19059451 -38.361747 159.21610077 -38.37007141 155.06059265 C-38.37715622 153.87888489 -38.38424103 152.69717712 -38.39154053 151.47966003 C-38.38906311 150.19175064 -38.38658569 148.90384125 -38.3840332 147.5769043 C-38.38838285 146.19999923 -38.39356685 144.82309658 -38.39952087 143.44619751 C-38.41289717 139.7125771 -38.41349092 135.97905801 -38.41095757 132.24541831 C-38.4098866 129.12434096 -38.41477463 126.003284 -38.419563 122.88221103 C-38.43065415 115.51528984 -38.43109826 108.14841964 -38.42504883 100.78149414 C-38.41901305 93.19306719 -38.43131081 85.60482584 -38.4526189 78.01643056 C-38.47026202 71.49225521 -38.47623186 64.96813878 -38.47298115 58.44394046 C-38.47117195 54.55143456 -38.4737678 50.65906097 -38.48769569 46.76657677 C-38.50031312 43.10326562 -38.49829326 39.44024253 -38.48528481 35.77693558 C-38.4818086 33.8008829 -38.49306906 31.82482126 -38.50485229 29.84880066 C-38.44380901 19.49116247 -36.44984989 11.59438035 -29.109375 3.9609375 C-21.46955669 -2.91323453 -9.4144149 -3.14602307 0 0 Z " fill="#B98B41" transform="translate(555.109375,399.0390625)"/>
<path d="M0 0 C4.29946191 1.61416962 7.61371656 3.78124674 11.1875 6.625 C11.75629883 7.07012939 12.32509766 7.51525879 12.91113281 7.97387695 C14.61302971 9.30900218 16.30779217 10.65262325 18 12 C18.90878906 12.72316406 19.81757813 13.44632812 20.75390625 14.19140625 C22.38223689 15.49356111 24.0086342 16.79813835 25.6328125 18.10546875 C29.3894332 21.11200512 33.19313496 24.05749562 37 27 C36.38550807 31.80420961 34.34731154 35.52954224 32.125 39.75 C22.67153103 58.18018701 20.94446006 78.98168615 27 99 C35.21688231 123.02034216 51.34256856 138.32032606 72 152 C73.09828125 152.72960937 74.1965625 153.45921875 75.328125 154.2109375 C76.31296875 154.86320313 77.2978125 155.51546875 78.3125 156.1875 C103.21944183 172.6904669 125.10363066 192.509493 136 221 C136.39590224 222.98856042 136.75190187 224.98764853 137 227 C137.66 227 138.32 227 139 227 C139.09724365 226.44675049 139.1944873 225.89350098 139.29467773 225.32348633 C140.42242866 219.56762613 142.24868625 214.81634779 145.0625 209.6875 C145.45953125 208.95329834 145.8565625 208.21909668 146.265625 207.46264648 C160.13911677 182.40994318 182.29541193 165.29463772 206 150.1875 C228.3768565 135.90958748 244.60905493 117.9822844 250.4375 91.625 C254.70277546 70.32025189 250.98494324 52.10070882 241 33 C240.34 32.01 239.68 31.02 239 30 C238.9921875 28.125 238.9921875 28.125 240 26 C242.0045342 24.1917555 243.96355722 22.59789064 246.125 21 C247.39927285 20.03234906 248.67268001 19.06355729 249.9453125 18.09375 C250.94159668 17.33964844 250.94159668 17.33964844 251.95800781 16.5703125 C254.01865751 14.98565219 256.04052945 13.36200702 258.0546875 11.71875 C258.71452637 11.18121094 259.37436523 10.64367187 260.05419922 10.08984375 C261.32167644 9.05423376 262.5864708 8.01532875 263.84814453 6.97265625 C264.43450684 6.49699219 265.02086914 6.02132813 265.625 5.53125 C266.13289063 5.11423828 266.64078125 4.69722656 267.1640625 4.26757812 C269.63954693 2.55844047 272.30454905 1.3273123 275 0 C275.09324197 11.57125444 275.16403743 23.1424175 275.20724869 34.71397305 C275.22800223 40.08882994 275.25609265 45.46342722 275.30175781 50.83813477 C275.34565654 56.03829004 275.36922873 61.23819778 275.37950897 66.43852425 C275.38682219 68.40897575 275.40109955 70.37941581 275.42292023 72.34976006 C275.74810441 102.96890016 265.90593576 128.83967107 244.375 151 C237.86071865 157.5069537 230.5596241 162.78208393 223 168 C222.0087915 168.68642578 222.0087915 168.68642578 220.99755859 169.38671875 C217.64727329 171.70296538 214.28859013 174.00667225 210.92578125 176.3046875 C179.35264598 197.92499785 147.8320363 224.34811772 139.40234375 263.796875 C139.26957031 264.52390625 139.13679687 265.2509375 139 266 C138.34 266 137.68 266 137 266 C136.79246094 265.2471875 136.58492187 264.494375 136.37109375 263.71875 C130.58078129 243.75549701 121.46451808 226.06606704 107 211 C105.91176687 209.6915597 104.82824785 208.37918103 103.75 207.0625 C91.94399647 193.61602673 75.89587531 183.78076793 61.31884766 173.66113281 C31.18115811 152.70624432 8.30375458 131.40137107 1.39846802 93.7172699 C-0.09958691 83.3134855 -0.25975941 73.09558217 -0.1953125 62.59765625 C-0.19157176 60.78063616 -0.18872982 58.96361403 -0.18673706 57.14659119 C-0.179184 52.4169841 -0.15960946 47.68750434 -0.1373291 42.95794678 C-0.11668884 38.1106539 -0.10769689 33.26333999 -0.09765625 28.41601562 C-0.07635375 18.94395517 -0.04232144 9.47198827 0 0 Z " fill="#B88A3F" transform="translate(374,406)"/>
<path d="M0 0 C3.48478389 1.24926215 5.43164611 2.35586559 7.875 5.125 C9.01849867 8.04727437 9.06206671 9.55567621 8.9375 12.625 C8.75058952 16.1820905 8.75058952 16.1820905 10.6875 19.125 C13.59427086 20.22485924 15.08084813 19.99865722 18 19 C18.66 18.34 19.32 17.68 20 17 C23.78121177 16.64342207 27.52281283 16.9903629 30.703125 19.1640625 C33.26104341 21.91308975 33.99850891 23.98743222 34.4375 27.6875 C34 31 34 31 32 34 C32.2062813 36.75041736 32.54890568 38.43302824 34.27734375 40.60546875 C36.36400636 42.29467182 37.73372471 42.47445282 40.375 42.8125 C43.90216818 43.48461511 45.69522248 44.21674528 48 47 C51.22140526 51.8321079 51.18228719 54.25795354 51 60 C48.95301586 62.04698414 44.69588759 61.70045693 42 62 C42 64.97 42 67.94 42 71 C43.19625 71.474375 44.3925 71.94875 45.625 72.4375 C50.80986469 75.05760956 53.66148368 78.72770865 56 84 C57.47921429 90.08712644 55.65956185 95.35171982 52.65234375 100.69140625 C49.71271859 104.79854211 46.77924264 107.28214635 42 109 C35.1234522 110.01190875 28.34524099 110.42616558 22.3125 106.5625 C21.75175781 106.11003906 21.19101562 105.65757812 20.61328125 105.19140625 C18.70501633 103.78215492 17.363815 103.2255728 15 103 C12.22877725 105.35426499 12.22877725 105.35426499 10 108 C11.92737184 113.20390397 16.31790269 116.03368878 20.9375 118.6875 C24.27016998 120.11578713 27.494168 121.08848368 31 122 C30.7416116 125.48824341 29.73533264 126.24214247 27.0625 128.6875 C22.09483275 132.43859568 18.46384945 132.05930183 12.49804688 131.87304688 C8.74358749 131.81053384 7.2124674 131.85835506 4 134 C3.78471644 137.5387235 4.0084926 140.98040569 4.1875 144.51953125 C3.98371074 148.30236948 3.25622917 150.00994873 1 153 C-2.42919572 155.57189679 -5.83939486 155.502142 -10 155 C-13.64363431 152.91673756 -16.7625233 150.08367311 -18 146 C-18.125 142.75 -18.125 142.75 -18 140 C-15.03 140.33 -12.06 140.66 -9 141 C-8.855625 140.0925 -8.71125 139.185 -8.5625 138.25 C-8.13535008 135.78202269 -7.6258727 133.41933984 -7 131 C-7.62648438 130.66226563 -8.25296875 130.32453125 -8.8984375 129.9765625 C-9.71570313 129.53054688 -10.53296875 129.08453125 -11.375 128.625 C-12.59316406 127.96371094 -12.59316406 127.96371094 -13.8359375 127.2890625 C-16 126 -16 126 -18 124 C-18.28088379 122.17414856 -18.28088379 122.17414856 -18.32226562 119.93676758 C-18.34148071 119.09862015 -18.3606958 118.26047272 -18.38049316 117.39692688 C-18.38899292 116.48863632 -18.39749268 115.58034576 -18.40625 114.64453125 C-18.41765015 113.70953293 -18.42905029 112.77453461 -18.4407959 111.811203 C-18.4597128 109.82820165 -18.4727706 107.84513718 -18.48046875 105.86206055 C-18.4998165 102.84115071 -18.56180521 99.82300098 -18.625 96.80273438 C-18.63806703 94.87501614 -18.64856525 92.94727845 -18.65625 91.01953125 C-18.6809436 90.12136185 -18.70563721 89.22319244 -18.7310791 88.29780579 C-18.69101829 82.59851693 -17.60381272 79.54324856 -13.68005371 75.37431335 C-10.04850667 72.40364429 -6.60524141 71.62798747 -2 71 C-1.34 67.7 -0.68 64.4 0 61 C-2.25028329 61.14139481 -4.50022206 61.28828003 -6.75 61.4375 C-8.00296875 61.51871094 -9.2559375 61.59992188 -10.546875 61.68359375 C-13.18317553 61.92515522 -15.48037294 62.24283934 -18 63 C-18.73881555 55.68025337 -18.25231349 50.74922667 -13.69921875 44.81640625 C-10.06960741 40.93647689 -6.6690504 39.85877615 -1.5 39.625 C3.51301121 39.80222767 7.12284346 41.31055911 10.875 44.6875 C11.24625 45.120625 11.6175 45.55375 12 46 C14.9719385 44.87548273 17.33440687 43.77706209 20 42 C19.7883581 38.2962668 19.07471295 37.07653522 16.4375 34.375 C8.96076452 28.7850822 1.10911659 27.97447032 -8 29 C-11.37206616 29.88633606 -14.6884782 30.91049857 -18 32 C-18.1171893 28.64613239 -18.18757584 25.29279851 -18.25 21.9375 C-18.28351562 20.99455078 -18.31703125 20.05160156 -18.3515625 19.08007812 C-18.43933162 12.78264406 -17.72419095 9.12750927 -14 4 C-9.50874542 0.01911526 -5.79215341 -0.94801713 0 0 Z " fill="#FBFBF9" transform="translate(547,410)"/>
<path d="M0 0 C4.52350609 2.29112646 7.23631575 5.58793251 8.9921875 10.3515625 C9.45109056 14.01679054 9.37320826 17.60284391 9.2421875 21.2890625 C9.22414063 22.25908203 9.20609375 23.22910156 9.1875 24.22851562 C9.14069417 26.60391144 9.07515135 28.97720094 8.9921875 31.3515625 C8.15578735 31.03541992 8.15578735 31.03541992 7.30249023 30.71289062 C-2.05987545 27.35472591 -12.48908178 26.18619193 -21.7578125 30.5390625 C-25.27223133 32.64297259 -28.06602768 34.65292474 -30.0078125 38.3515625 C-29.87631424 41.10280503 -29.87631424 41.10280503 -29.0078125 43.3515625 C-25.61042107 44.91845226 -25.61042107 44.91845226 -22.0078125 45.3515625 C-20.03726531 44.16688611 -20.03726531 44.16688611 -18.1953125 42.4765625 C-14.23980319 39.12014004 -11.452629 38.60831088 -6.328125 38.96875 C0.46665919 40.089775 4.06734617 44.04599522 7.9921875 49.3515625 C9.91791271 53.20301293 9.04101968 58.15199502 8.9921875 62.3515625 C3.0521875 61.6915625 -2.8878125 61.0315625 -9.0078125 60.3515625 C-8.3478125 63.6515625 -7.6878125 66.9515625 -7.0078125 70.3515625 C-4.6875 70.9084375 -4.6875 70.9084375 -2.3203125 71.4765625 C1.841339 72.47535886 4.23047138 74.06254448 6.92204285 77.42645264 C9.03516187 81.22779507 8.76493984 85.35145497 8.76171875 89.60546875 C8.7736174 90.58394272 8.78551605 91.56241669 8.79777527 92.57054138 C8.81427356 94.63216995 8.81769734 96.69393969 8.80883789 98.75561523 C8.80469396 101.90914362 8.86988566 105.05632468 8.93945312 108.20898438 C8.94693132 110.21613454 8.95032506 112.22330496 8.94921875 114.23046875 C8.98762627 115.64000572 8.98762627 115.64000572 9.02680969 117.07801819 C8.91449984 123.44888091 8.91449984 123.44888091 6.21713257 126.08883667 C1.1667975 129.3515625 1.1667975 129.3515625 -2.0078125 129.3515625 C-1.0178125 132.6515625 -0.0278125 135.9515625 0.9921875 139.3515625 C3.3021875 139.3515625 5.6121875 139.3515625 7.9921875 139.3515625 C8.66183036 147.11941964 8.66183036 147.11941964 5.6171875 150.7890625 C2.06902527 154.25274468 0.02598823 154.74726287 -4.96875 154.7109375 C-8.38787948 154.1083323 -9.93970302 151.98370183 -12.0078125 149.3515625 C-13.91475135 145.5376848 -12.89583218 140.7253039 -12.75 136.5390625 C-12.83507812 135.4871875 -12.92015625 134.4353125 -13.0078125 133.3515625 C-17.19232942 130.56188455 -21.10565989 131.31143156 -25.93945312 131.60546875 C-31.20253212 131.77286322 -33.9553626 130.65670904 -38.0078125 127.3515625 C-41.0078125 123.9515625 -41.0078125 123.9515625 -41.0078125 121.3515625 C-40.09 121.07183594 -39.1721875 120.79210937 -38.2265625 120.50390625 C-30.55763993 117.99861747 -24.60130163 115.37932874 -19.0078125 109.3515625 C-20.53353906 106.02520368 -21.94125754 104.39593248 -25.0078125 102.3515625 C-27.59589587 103.60604832 -29.93514104 104.93543602 -32.3828125 106.4765625 C-38.64936623 109.6039608 -46.63717033 109.68371029 -53.2890625 107.65625 C-58.60325011 104.882617 -62.76564275 99.86315157 -65.0078125 94.3515625 C-65.67141689 88.81123747 -65.76355145 83.91902106 -63.3203125 78.8515625 C-59.11153645 74.30153434 -56.31992253 71.93873553 -50.0078125 71.3515625 C-50.14824127 69.70525922 -50.29530579 68.05952071 -50.4453125 66.4140625 C-50.52652344 65.49753906 -50.60773438 64.58101563 -50.69140625 63.63671875 C-50.76826226 61.38996518 -50.76826226 61.38996518 -52.0078125 60.3515625 C-53.35528334 60.12081168 -54.71158815 59.94003187 -56.0703125 59.7890625 C-57.3696875 59.6446875 -58.6690625 59.5003125 -60.0078125 59.3515625 C-60.49293247 52.31732289 -59.23075885 49.27265449 -54.69140625 43.75 C-52.4824314 41.91516706 -50.70309615 41.71251617 -47.8828125 41.2890625 C-45.25964043 40.92952721 -45.25964043 40.92952721 -43.0078125 40.3515625 C-41.62656232 37.58906214 -41.81701944 35.40425151 -42.0078125 32.3515625 C-42.6678125 31.6915625 -43.3278125 31.0315625 -44.0078125 30.3515625 C-44.54613826 26.40384028 -44.15468654 24.61492284 -42.1953125 21.1015625 C-40.08084592 18.44337594 -38.5563977 16.56386854 -35.0703125 16.0859375 C-34.3896875 16.09109375 -33.7090625 16.09625 -33.0078125 16.1015625 C-31.986875 16.09382813 -31.986875 16.09382813 -30.9453125 16.0859375 C-29.0078125 16.3515625 -29.0078125 16.3515625 -26.0078125 18.3515625 C-22.18032345 18.16923658 -22.18032345 18.16923658 -19.0078125 16.3515625 C-18.90197271 14.79042553 -18.82324427 13.22741447 -18.7578125 11.6640625 C-18.28842099 6.29299239 -16.87971626 4.0345929 -13.0078125 0.3515625 C-9.05679243 -1.62394753 -4.1503945 -1.34039978 0 0 Z " fill="#FCFBFA" transform="translate(486.0078125,410.6484375)"/>
<path d="M0 0 C0.8137207 0.29334229 1.62744141 0.58668457 2.46582031 0.88891602 C4.35192673 1.57076629 6.23623768 2.25759488 8.11914062 2.94824219 C12.12265629 4.41573536 16.13149955 5.8682322 20.140625 7.3203125 C28.26451666 10.26483009 36.38336565 13.22304325 44.5 16.1875 C44.17 16.8475 43.84 17.5075 43.5 18.1875 C42.84 18.1875 42.18 18.1875 41.5 18.1875 C41.60948106 22.3130669 41.74020225 26.43768878 41.875 30.5625 C41.9059375 31.738125 41.936875 32.91375 41.96875 34.125 C42.00742187 35.24648438 42.04609375 36.36796875 42.0859375 37.5234375 C42.1173584 38.56032715 42.1487793 39.5972168 42.18115234 40.66552734 C42.25954472 43.35559835 42.25954472 43.35559835 44.5 45.1875 C44.77240673 48.20576653 44.58675125 51.15120622 44.5 54.1875 C41.2 54.1875 37.9 54.1875 34.5 54.1875 C34.3046875 47.3515625 34.3046875 47.3515625 34.5 45.1875 C35.49 44.1975 35.49 44.1975 36.5 43.1875 C36.21269945 40.84805264 35.88063221 38.5135857 35.5 36.1875 C35.83 35.8575 36.16 35.5275 36.5 35.1875 C36.57271741 32.83436445 36.58370868 30.47916332 36.5625 28.125 C36.55347656 26.83464844 36.54445313 25.54429687 36.53515625 24.21484375 C36.52355469 23.21582031 36.51195312 22.21679688 36.5 21.1875 C32.4243996 22.61819665 28.35013729 24.0526285 24.27709961 25.49060059 C22.84553348 25.99574936 21.41373082 26.50022837 19.98168945 27.00402832 C10.87163453 30.21137769 1.78750862 33.44509683 -7.05615234 37.34399414 C-14.70310036 40.52908367 -21.15398795 37.80123687 -28.44140625 34.984375 C-29.28613998 34.66470764 -30.13087372 34.34504028 -31.00120544 34.01568604 C-33.69092058 32.99635903 -36.37678886 31.96732464 -39.0625 30.9375 C-42.58373889 29.59659578 -46.10637955 28.25939173 -49.62890625 26.921875 C-50.4760318 26.59932739 -51.32315735 26.27677979 -52.19595337 25.94445801 C-59.26311641 23.25941865 -66.36527278 20.68736693 -73.5 18.1875 C-73.5 17.5275 -73.5 16.8675 -73.5 16.1875 C-65.59170644 13.25920486 -57.67689719 10.3497637 -49.75172424 7.46749878 C-46.38828152 6.24367443 -43.02707208 5.01467826 -39.67236328 3.76708984 C-36.18353353 2.47300519 -32.68689331 1.20268886 -29.1875 -0.0625 C-28.14094238 -0.45687256 -27.09438477 -0.85124512 -26.01611328 -1.25756836 C-16.2886351 -4.72376305 -9.46795869 -3.51943368 0 0 Z " fill="#BA8C41" transform="translate(526.5,303.8125)"/>
<path d="M0 0 C0 52.47 0 104.94 0 159 C-6.93 160.65 -13.86 162.3 -21 164 C-24.68791969 165.05267753 -28.30620352 166.10862208 -31.9375 167.3125 C-32.83823242 167.60680908 -33.73896484 167.90111816 -34.66699219 168.2043457 C-37.44945436 169.12257754 -40.22532867 170.05851443 -43 171 C-44.331521 171.44617676 -44.331521 171.44617676 -45.68994141 171.90136719 C-85.00054589 185.18440249 -121.86046891 205.66046913 -152.0625 234.2734375 C-154.93719649 236.9834782 -157.94306925 239.49804775 -161 242 C-158.3230347 235.66451545 -152.68115991 230.92010867 -148 226 C-147.46793945 225.43394043 -146.93587891 224.86788086 -146.38769531 224.28466797 C-117.88653883 194.10144803 -79.73554189 174.95229259 -41 161.3125 C-39.48901733 160.77737793 -39.48901733 160.77737793 -37.94750977 160.23144531 C-28.37122707 156.94119133 -18.8809821 154.60025845 -9 152 C-8.67 102.17 -8.34 52.34 -8 1 C-6 0 -6 0 0 0 Z " fill="#BA8D47" transform="translate(677,433)"/>
<path d="M0 0 C7 2 7 2 8 3 C8.09662973 4.936283 8.12187144 6.87614262 8.12025452 8.81483459 C8.12162918 10.07833237 8.12300385 11.34183014 8.12442017 12.64361572 C8.12088055 14.05676293 8.11724574 15.4699099 8.11352539 16.88305664 C8.11324353 18.36101784 8.11340124 19.83897919 8.1139679 21.31694031 C8.1142559 25.34155828 8.1083587 29.36614672 8.10139394 33.3907578 C8.09516088 37.59216365 8.09455664 41.7935701 8.09336853 45.99497986 C8.09025507 53.95646257 8.08204149 61.91793162 8.07201904 69.8794083 C8.06085836 78.94092589 8.05534757 88.00244412 8.05032361 97.06396687 C8.03985888 115.709319 8.02225916 134.35465841 8 153 C9.06585831 153.26078842 10.13171661 153.52157684 11.22987366 153.79026794 C12.65987204 154.14317422 14.08983753 154.4962138 15.51977539 154.84936523 C16.21852028 155.01995201 16.91726517 155.19053879 17.63718414 155.36629486 C23.69122365 156.8661119 29.61768059 158.66504578 35.51416016 160.70288086 C36.15411926 160.92394501 36.79407837 161.14500916 37.45343018 161.37277222 C38.43554474 161.71418747 38.43554474 161.71418747 39.4375 162.0625 C40.12221375 162.29921417 40.80692749 162.53592834 41.51239014 162.77981567 C85.65851026 178.10930321 129.32558483 201.90698104 159 239 C158.67 239.66 158.34 240.32 158 241 C157.40574219 240.38253906 156.81148437 239.76507812 156.19921875 239.12890625 C150.13697124 232.93466579 143.85902644 227.29113781 137 222 C136.34418945 221.48953125 135.68837891 220.9790625 135.01269531 220.453125 C102.37477133 195.20408485 65.38113267 178.80641894 26.1875 166.5625 C25.16889893 166.2442627 24.15029785 165.92602539 23.10083008 165.59814453 C15.41993691 163.27302943 7.91603708 161.69629366 0 160 C0 107.2 0 54.4 0 0 Z " fill="#BC8E46" transform="translate(347,432)"/>
<path d="M0 0 C8.67552092 2.42384783 16.98241198 5.60868776 25.34179688 8.94726562 C26.35693359 9.33978516 27.37207031 9.73230469 28.41796875 10.13671875 C29.32313232 10.49467529 30.2282959 10.85263184 31.16088867 11.22143555 C37.52953657 12.96789854 42.59790149 11.77364186 48.578125 9.375 C49.27137878 9.10864746 49.96463257 8.84229492 50.67889404 8.56787109 C52.87368899 7.72284812 55.06200631 6.86246312 57.25 6 C59.4530923 5.13992816 61.65739256 4.28326537 63.86395264 3.43212891 C65.2317822 2.9036829 66.59749097 2.36970625 67.96075439 1.82958984 C70.80650289 0.7230181 72.91550469 0 76 0 C76.77626297 12.74796296 76.77626297 12.74796296 74.0625 17.125 C70.13138822 19.53180313 66.3379367 21.43593654 62 23 C61.19433594 23.30164063 60.38867188 23.60328125 59.55859375 23.9140625 C43.87527344 28.79940536 23.23336722 27.88212052 8.3515625 20.7265625 C6.42818406 19.58086776 4.7104494 18.43966585 3 17 C2.443125 16.60296875 1.88625 16.2059375 1.3125 15.796875 C-0.77388208 12.94051859 -0.28280087 10.27509822 -0.1875 6.8125 C-0.16042969 5.54019531 -0.13335937 4.26789063 -0.10546875 2.95703125 C-0.07066406 1.98121094 -0.03585937 1.00539063 0 0 Z " fill="#BC8D43" transform="translate(474,334)"/>
<path d="M0 0 C8.38474052 4.89353323 12.87334006 11.20159958 16.2421875 20.30859375 C16.82198226 23.07819186 16.79518435 24.48216542 16.2421875 27.30859375 C13.03838733 29.44446053 12.22278783 29.5399155 8.5546875 29.43359375 C7.74644531 29.41554688 6.93820312 29.3975 6.10546875 29.37890625 C5.49058594 29.35570312 4.87570312 29.3325 4.2421875 29.30859375 C4.09523438 28.43847656 4.09523438 28.43847656 3.9453125 27.55078125 C2.73992055 21.25364743 1.15439916 16.41994721 -4.2578125 12.49609375 C-9.27237155 10.1141782 -14.26507285 9.71903314 -19.7578125 10.30859375 C-22.57561784 11.69744623 -22.57561784 11.69744623 -24.7578125 13.30859375 C-27.7578125 13.30859375 -27.7578125 13.30859375 -29.1796875 11.91796875 C-29.61796875 11.304375 -30.05625 10.69078125 -30.5078125 10.05859375 C-30.95640625 9.4553125 -31.405 8.85203125 -31.8671875 8.23046875 C-32.7578125 6.30859375 -32.7578125 6.30859375 -32.66015625 4.24609375 C-31.05624897 0.80220625 -28.16936734 -0.16458978 -24.83984375 -1.703125 C-16.64721447 -4.33016582 -7.75801874 -3.67552035 0 0 Z " fill="#BB8C43" transform="translate(471.7578125,494.69140625)"/>
<path d="M0 0 C1.85546875 1.484375 1.85546875 1.484375 3.85546875 5.484375 C1.87546875 7.794375 -0.10453125 10.104375 -2.14453125 12.484375 C-7.89453125 10.609375 -7.89453125 10.609375 -10.14453125 9.484375 C-16.1015507 8.92724368 -21.09661524 8.96257314 -26.14453125 12.484375 C-30.45118851 16.59527511 -31.80672408 19.78766617 -32.78515625 25.62890625 C-33.14453125 27.484375 -33.14453125 27.484375 -34.14453125 28.484375 C-39.16333103 28.87043652 -42.05165327 28.46101353 -46.14453125 25.484375 C-44.12809341 13.93568558 -39.60954075 6.53349047 -30.14453125 -0.515625 C-21.19818202 -6.24128851 -9.02374168 -4.89730704 0 0 Z " fill="#BB8C42" transform="translate(581.14453125,495.515625)"/>
<path d="M0 0 C6 2 6 2 7 3 C7.07179964 4.51928038 7.08392007 6.04167482 7.0625 7.5625 C7.05347656 8.38878906 7.04445313 9.21507812 7.03515625 10.06640625 C7.01775391 11.02353516 7.01775391 11.02353516 7 12 C8.010625 11.319375 9.02125 10.63875 10.0625 9.9375 C14.0275134 7.66721007 16.52629257 7.94257824 21 9 C38.52534432 12.76327927 58.47148965 11.08327922 74 2 C74.99 1.34 75.98 0.68 77 0 C77.3125 3.25 77.3125 3.25 77 7 C71.01038711 14.02230476 59.81846505 16.7813344 51 18 C47.14020549 18.25787781 43.30468816 18.28075299 39.4375 18.25 C38.46103516 18.25773437 37.48457031 18.26546875 36.47851562 18.2734375 C31.04916092 18.2589108 26.11679737 17.81118785 20.85961914 16.42871094 C16.86539263 15.50789411 14.14565619 16.29662945 10.703125 18.41015625 C9.1021201 19.48854012 7.51757283 20.59189038 5.953125 21.72265625 C4 23 4 23 2 23 C2 23.66 2 24.32 2 25 C1.34 25 0.68 25 0 25 C0 16.75 0 8.5 0 0 Z " fill="#BD904A" transform="translate(473,356)"/>
<path d="M0 0 C-0.639375 0.226875 -1.27875 0.45375 -1.9375 0.6875 C-2.618125 1.120625 -3.29875 1.55375 -4 2 C-4.16193848 3.20619995 -4.16193848 3.20619995 -4.32714844 4.43676758 C-5 7 -5 7 -7.07519531 8.3269043 C-7.98366211 8.65601807 -8.89212891 8.98513184 -9.828125 9.32421875 C-10.84479248 9.70747314 -11.86145996 10.09072754 -12.90893555 10.4855957 C-14.56276245 11.08053833 -14.56276245 11.08053833 -16.25 11.6875 C-18.55535381 12.56515944 -20.85871763 13.4480622 -23.16015625 14.3359375 C-24.89483154 15.00254395 -24.89483154 15.00254395 -26.66455078 15.68261719 C-44.72938547 22.81757898 -64.41591758 32.00166624 -79 45 C-79.66 44.67 -80.32 44.34 -81 44 C-60.19610793 25.85387388 -35.88697489 13.5220444 -11 2 C-10.26918213 1.660896 -9.53836426 1.32179199 -8.78540039 0.97241211 C-3.34258579 -1.47073775 -3.34258579 -1.47073775 0 0 Z " fill="#BC8D43" transform="translate(601,629)"/>
<path d="M0 0 C2.48836965 3.73255448 2.54226552 5.58440935 2 10 C-0.25 12.1875 -0.25 12.1875 -3 14 C-6.12965958 16.7719842 -7.67499157 19.02497471 -9 23 C-10.64574566 23.02688151 -12.29161413 23.04634123 -13.9375 23.0625 C-14.85402344 23.07410156 -15.77054688 23.08570313 -16.71484375 23.09765625 C-19 23 -19 23 -20 22 C-20.06323803 15.9923871 -18.93513144 11.66002407 -15 7 C-10.40498543 2.54105647 -6.77480534 -0.69485183 0 0 Z " fill="#BB8D43" transform="translate(577,463)"/>
<path d="M0 0 C5.99651842 0.29982592 9.76437731 2.99015678 14 7 C17.73045854 11.57488898 18.70232583 16.24496606 19 22 C17.35405836 23.64594164 15.51535298 23.40499765 13.25 23.5625 C10.5 23.55078125 10.5 23.55078125 8 23 C6.23042164 21.13751878 5.28535675 19.32236094 4.16015625 17.01953125 C3.00556327 14.6412477 3.00556327 14.6412477 -0.3125 12.9375 C-1.199375 12.298125 -2.08625 11.65875 -3 11 C-3.63210717 7.06688873 -3.60020266 4.97532932 -1.5 1.5625 C-1.005 1.046875 -0.51 0.53125 0 0 Z " fill="#BD8E45" transform="translate(448,463)"/>
<path d="M0 0 C42.92098093 19.84196185 42.92098093 19.84196185 49 32 C46.16391037 30.62659291 43.47788377 29.1155754 40.796875 27.4609375 C26.92506587 18.97180543 12.88906464 11.56128272 -2 5 C-1.34 3.35 -0.68 1.7 0 0 Z " fill="#C1914A" transform="translate(454,641)"/>
<path d="M0 0 C1.32 0.66 2.64 1.32 4 2 C0.11363964 6.00502785 -4.00109118 9.63576959 -8.25 13.25 C-14.10181543 18.26737531 -19.67727923 23.41763431 -25 29 C-25 24.76918149 -22.59078296 23.0231254 -19.8125 20.125 C-19.28237305 19.56143799 -18.75224609 18.99787598 -18.20605469 18.41723633 C-12.27034985 12.14762641 -6.14885602 6.05959843 0 0 Z " fill="#BC8F45" transform="translate(542,646)"/>
<path d="M0 0 C3.90512123 0.51830847 5.848836 1.3528811 8.59375 4.16796875 C9.23183594 4.81443359 9.86992187 5.46089844 10.52734375 6.12695312 C11.17832031 6.80693359 11.82929688 7.48691406 12.5 8.1875 C13.15097656 8.84814453 13.80195313 9.50878906 14.47265625 10.18945312 C18.17890549 13.98180714 21.66595613 17.87732652 25 22 C24.67 22.66 24.34 23.32 24 24 C23.40574219 23.38253906 22.81148438 22.76507812 22.19921875 22.12890625 C16.84933458 16.66253938 11.42541299 11.76653975 5.34765625 7.10546875 C2.91808774 4.92653793 1.51784394 2.87037814 0 0 Z " fill="#BE944F" transform="translate(481,649)"/>
<path d="M0 0 C0.33 0 0.66 0 1 0 C1.22634311 3.4157233 1.42792113 6.83247322 1.625 10.25 C1.68945312 11.21808594 1.75390625 12.18617188 1.8203125 13.18359375 C1.871875 14.11816406 1.9234375 15.05273438 1.9765625 16.015625 C2.02893066 16.87446289 2.08129883 17.73330078 2.13525391 18.61816406 C1.9870078 21.22879397 1.32298482 22.76943856 0 25 C-3 24 -3 24 -4.25 22.1875 C-5 20 -5 20 -4.58203125 18.34765625 C-3.75650684 15.01785646 -3.63423573 11.66223612 -3.4375 8.25 C-3.39431641 7.55261719 -3.35113281 6.85523438 -3.30664062 6.13671875 C-3.20110404 4.42468078 -3.1001009 2.71236439 -3 1 C-2.67 1 -2.34 1 -2 1 C-2 5.95 -2 10.9 -2 16 C-1.34 16 -0.68 16 0 16 C0 10.72 0 5.44 0 0 Z " fill="#C5A26A" transform="translate(567,323)"/>
<path d="M0 0 C0.66 0.33 1.32 0.66 2 1 C-0.44773169 6.20142984 -4.40211381 8.82188865 -9 12 C-8.67 12.99 -8.34 13.98 -8 15 C-10.97 16.32 -13.94 17.64 -17 19 C-15.85501515 14.42006061 -14.8109044 13.6057033 -11.3125 10.625 C-7.37780759 7.20966441 -3.63482022 3.73047338 0 0 Z " fill="#F3EEE7" transform="translate(530,661)"/>
<path d="M0 0 C4.16723435 2.0473561 7.8318157 4.67928526 11.60546875 7.37109375 C12.37697266 7.90927734 13.14847656 8.44746094 13.94335938 9.00195312 C14.68134766 9.52466797 15.41933594 10.04738281 16.1796875 10.5859375 C16.84959717 11.06023193 17.51950684 11.53452637 18.2097168 12.02319336 C19.91796875 13.43359375 19.91796875 13.43359375 21.91796875 16.43359375 C17.03562721 14.06436593 12.44355944 11.22263258 7.79296875 8.43359375 C6.87386719 7.88703125 5.95476562 7.34046875 5.0078125 6.77734375 C3.69103516 5.9884375 3.69103516 5.9884375 2.34765625 5.18359375 C1.54569824 4.7040625 0.74374023 4.22453125 -0.08251953 3.73046875 C-2.08203125 2.43359375 -2.08203125 2.43359375 -4.08203125 0.43359375 C-2.08203125 -0.56640625 -2.08203125 -0.56640625 0 0 Z " fill="#C39B57" transform="translate(481.08203125,656.56640625)"/>
<path d="M0 0 C0.66 0.99 1.32 1.98 2 3 C0.90300781 3.67546875 -0.19398438 4.3509375 -1.32421875 5.046875 C-2.77875113 5.94774667 -4.23317236 6.84879784 -5.6875 7.75 C-6.40873047 8.1934375 -7.12996094 8.636875 -7.87304688 9.09375 C-11.78627646 11.52388344 -15.47080229 14.02071673 -19 17 C-19.66 16.67 -20.32 16.34 -21 16 C-14.21884164 10.31465621 -7.33736601 4.94993672 0 0 Z " fill="#C19C5A" transform="translate(541,657)"/>
<path d="M0 0 C0.33 0.99 0.66 1.98 1 3 C-3.62 7.62 -8.24 12.24 -13 17 C-13 13.55262494 -12.66974196 13.27721902 -10.41015625 10.8984375 C-9.87326172 10.32609375 -9.33636719 9.75375 -8.78320312 9.1640625 C-8.21537109 8.57367187 -7.64753906 7.98328125 -7.0625 7.375 C-6.49853516 6.776875 -5.93457031 6.17875 -5.35351562 5.5625 C-1.79225128 1.79225128 -1.79225128 1.79225128 0 0 Z " fill="#C19D56" transform="translate(530,658)"/>
<path d="M0 0 C4.5076467 0.53031138 7.41954788 2.25221116 11 5 C11 5.66 11 6.32 11 7 C6.24518354 6.42365861 3.02951788 4.44931479 -1 2 C-0.67 1.34 -0.34 0.68 0 0 Z " fill="#BC8C43" transform="translate(468,650)"/>
<path d="M0 0 C1.98 0.99 3.96 1.98 6 3 C4.515 5.475 4.515 5.475 3 8 C1.02 7.01 -0.96 6.02 -3 5 C-2.01 3.35 -1.02 1.7 0 0 Z " fill="#C19148" transform="translate(456,628)"/>
<path d="M0 0 C1.75 2.25 1.75 2.25 1.75 5.25 C-4 3.375 -4 3.375 -6.25 2.25 C-6.25 1.26 -6.25 0.27 -6.25 -0.75 C-3.2663262 -2.02871734 -2.64201386 -2.05489967 0 0 Z " fill="#EAE1CC" transform="translate(508.25,673.75)"/>
<path d="M0 0 C-0.33 0.99 -0.66 1.98 -1 3 C-1.66 3.268125 -2.32 3.53625 -3 3.8125 C-3.66 4.204375 -4.32 4.59625 -5 5 C-5.81584568 8.05908413 -5.81584568 8.05908413 -6 11 C-6.33 11 -6.66 11 -7 11 C-7.36300778 4.70786517 -7.36300778 4.70786517 -5.75 1.5625 C-4 0 -4 0 0 0 Z " fill="#C39855" transform="translate(452,463)"/>
<path d="M0 0 C0.99 0.99 1.98 1.98 3 3 C0.35261084 4.4606285 -0.89448334 5 -4 5 C-2.25 1.125 -2.25 1.125 0 0 Z " fill="#BC924B" transform="translate(546,654)"/>
<path d="M0 0 C-1.49097658 3.7952131 -3.75700849 5.61042731 -7 8 C-4.18918919 0 -4.18918919 0 0 0 Z " fill="#C0914C" transform="translate(528,403)"/>
</svg>
